<?xml version="1.0" encoding="UTF-8" standalone="no"?>
<!-- Creator: CorelDRAW X8 -->

<svg
   xmlns:dc="http://purl.org/dc/elements/1.1/"
   xmlns:cc="http://creativecommons.org/ns#"
   xmlns:rdf="http://www.w3.org/1999/02/22-rdf-syntax-ns#"
   xmlns:svg="http://www.w3.org/2000/svg"
   xmlns="http://www.w3.org/2000/svg"
   xmlns:sodipodi="http://sodipodi.sourceforge.net/DTD/sodipodi-0.dtd"
   xmlns:inkscape="http://www.inkscape.org/namespaces/inkscape"
   xml:space="preserve"
   width="27px"
   height="27px"
   version="1.0"
   style="shape-rendering:geometricPrecision; text-rendering:geometricPrecision; image-rendering:optimizeQuality; fill-rule:evenodd; clip-rule:evenodd"
   viewBox="0 0 3000 3000"
   id="svg13"
   sodipodi:docname="icon_phone _hover.svg"
   inkscape:version="0.92.1 r15371"><metadata
     id="metadata17"><rdf:RDF><cc:Work
         rdf:about=""><dc:format>image/svg+xml</dc:format><dc:type
           rdf:resource="http://purl.org/dc/dcmitype/StillImage" /></cc:Work></rdf:RDF></metadata><sodipodi:namedview
     pagecolor="#ffffff"
     bordercolor="#666666"
     borderopacity="1"
     objecttolerance="10"
     gridtolerance="10"
     guidetolerance="10"
     inkscape:pageopacity="0"
     inkscape:pageshadow="2"
     inkscape:window-width="864"
     inkscape:window-height="570"
     id="namedview15"
     showgrid="false"
     inkscape:zoom="8.7407407"
     inkscape:cx="13.714051"
     inkscape:cy="13.5"
     inkscape:window-x="376"
     inkscape:window-y="254"
     inkscape:window-maximized="0"
     inkscape:current-layer="_2328884681904" /><defs
     id="defs4"><style
       type="text/css"
       id="style2"><![CDATA[
    .str0 {stroke:#00C0F3;stroke-width:118.117}
    .fil0 {fill:none}
    .fil1 {fill:#00C0F3}
   ]]></style></defs><g
     id="_2328884681904"><circle
       style="fill:none;stroke:#1b75bb;stroke-width:118.11699677;stroke-opacity:1"
       id="circle7"
       r="1344"
       cy="1450"
       cx="1450"
       class="fil0 str0" /><path
       style="fill:#1b75bb;fill-opacity:1"
       inkscape:connector-curvature="0"
       id="path9"
       d="m 1078,1256 140,-139 c 11,-12 18,-28 18,-42 0,-15 -5,-29 -15,-40 L 1003,817 c -11,-10 -25,-16 -40,-16 -14,1 -30,7 -42,19 l -46,46 -33,47 -19,41 -12,38 -7,38 c -13,109 5,213 61,324 58,116 156,240 299,383 135,135 260,220 367,273 196,98 326,89 340,88 l 39,-7 39,-13 39,-19 35,-23 10,-8 49,-47 c 11,-12 18,-28 18,-43 0,-14 -5,-29 -16,-39 l -217,-218 c -11,-11 -26,-16 -40,-16 -14,1 -30,7 -42,19 l -139,139 -59,-32 c -72,-40 -171,-95 -276,-200 -52,-52 -93,-104 -125,-152 -32,-47 -56,-90 -75,-125 z"
       class="fil1" /></g></svg>