<?xml version="1.0" encoding="UTF-8"?>
<!DOCTYPE svg PUBLIC "-//W3C//DTD SVG 1.0//EN" "http://www.w3.org/TR/2001/REC-SVG-20010904/DTD/svg10.dtd">
<!-- Creator: CorelDRAW X8 -->
<svg xmlns="http://www.w3.org/2000/svg" xml:space="preserve" width="83px" height="27px" version="1.0" style="shape-rendering:geometricPrecision; text-rendering:geometricPrecision; image-rendering:optimizeQuality; fill-rule:evenodd; clip-rule:evenodd"
viewBox="0 0 8300 2700"
 xmlns:xlink="http://www.w3.org/1999/xlink">
 <defs>
  <style type="text/css">
   <![CDATA[
    .fil0 {fill:url(#id0)}
   ]]>
  </style>
  <linearGradient id="id0" gradientUnits="userSpaceOnUse" x1="1.53546" y1="1349.91" x2="8298.46" y2="1349.91">
   <stop offset="0" style="stop-opacity:1; stop-color:#322D5C"/>
   <stop offset="1" style="stop-opacity:1; stop-color:#264796"/>
  </linearGradient>
 </defs>
 <g id="Layer_x0020_1">
  <metadata id="CorelCorpID_0Corel-Layer"/>
  <path class="fil0" d="M4110 58l-555 2591 -670 0 554 -2591 671 0zm2820 1673l353 -973 203 973 -556 0zm748 918l620 0 -541 -2591 -572 0c-129,0 -237,74 -285,190l-1006 2401 703 0 140 -387 860 0 81 387zm-1750 -846c3,-684 -945,-722 -939,-1027 2,-93 91,-192 285,-217 96,-13 360,-23 661,116l117 -550c-161,-59 -369,-115 -627,-115 -662,0 -1129,352 -1133,857 -4,373 333,581 587,705 261,127 349,209 348,322 -2,174 -208,251 -401,254 -337,5 -533,-91 -689,-164l-121 568c156,72 445,135 745,138 705,0 1165,-348 1167,-887zm-2776 -1745l-1087 2591 -708 0 -535 -2068c-32,-127 -60,-174 -159,-228 -161,-87 -427,-169 -661,-220l15 -75 1141 0c145,0 276,96 309,264l283 1499 697 -1763 705 0z"/>
 </g>
</svg>
