<?xml version="1.0" encoding="UTF-8"?>
<!DOCTYPE svg PUBLIC "-//W3C//DTD SVG 1.0//EN" "http://www.w3.org/TR/2001/REC-SVG-20010904/DTD/svg10.dtd">
<!-- Creator: CorelDRAW X8 -->
<svg xmlns="http://www.w3.org/2000/svg" xml:space="preserve" width="27px" height="52px" version="1.0" style="shape-rendering:geometricPrecision; text-rendering:geometricPrecision; image-rendering:optimizeQuality; fill-rule:evenodd; clip-rule:evenodd"
viewBox="0 0 2700 5200"
 xmlns:xlink="http://www.w3.org/1999/xlink">
 <defs>
  <style type="text/css">
   <![CDATA[
    .str0 {stroke:#A2A2A2;stroke-width:118.121}
    .str1 {stroke:#A2A2A2;stroke-width:118.121;stroke-linecap:round}
    .str2 {stroke:#A2A2A2;stroke-width:118.121;stroke-linecap:round;stroke-linejoin:round}
    .fil0 {fill:none}
   ]]>
  </style>
 </defs>
 <g id="Layer_x0020_1">
  <metadata id="CorelCorpID_0Corel-Layer"/>
  <g id="_2542699205120">
   <path class="fil0 str0" d="M1319 4202l62 0c660,0 1200,-540 1200,-1200l0 -1679c0,-660 -540,-1200 -1200,-1200l-62 0c-660,0 -1200,540 -1200,1200l0 1679c0,660 540,1200 1200,1200z"/>
   <path class="fil0 str0" d="M1315 1475c194,0 351,-157 351,-352 0,-194 -157,-351 -351,-351 -194,0 -352,157 -352,351 0,195 158,352 352,352z"/>
   <line class="fil0 str1" x1="1350" y1="2163" x2="1350" y2= "5077" />
   <polyline class="fil0 str2" points="1001,4728 1350,5077 1699,4728 "/>
  </g>
 </g>
</svg>
