<?xml version="1.0" encoding="UTF-8"?>
<!DOCTYPE svg PUBLIC "-//W3C//DTD SVG 1.0//EN" "http://www.w3.org/TR/2001/REC-SVG-20010904/DTD/svg10.dtd">
<!-- Creator: CorelDRAW X8 -->
<svg xmlns="http://www.w3.org/2000/svg" xml:space="preserve" width="210px" height="63px" version="1.0" style="shape-rendering:geometricPrecision; text-rendering:geometricPrecision; image-rendering:optimizeQuality; fill-rule:evenodd; clip-rule:evenodd"
viewBox="0 0 21000 6300"
 xmlns:xlink="http://www.w3.org/1999/xlink">
 <defs>
  <style type="text/css">
   <![CDATA[
    .fil0 {fill:white;fill-rule:nonzero}
   ]]>
  </style>
 </defs>
 <g id="Layer_x0020_1">
  <metadata id="CorelCorpID_0Corel-Layer"/>
  <g id="_1760762092976">
   <path class="fil0" d="M5253 5201c-4,-3 -7,-6 -11,-10 -54,57 -109,114 -163,171l7 7c67,-45 112,-111 167,-168zm-1241 817c-2,-6 -4,-12 -6,-18 -66,26 -132,53 -198,79 2,5 4,10 6,16 66,-26 132,-51 198,-77zm-1766 -5829c26,16 165,-26 194,-62 -73,12 -132,34 -194,62zm892 -55c-58,-23 -115,-1 -175,6 26,27 114,25 175,-6zm2141 4841c42,-5 163,-167 152,-198 -51,65 -100,130 -152,198zm-3169 -4702c-42,-18 -197,47 -226,86 2,3 3,7 4,10 71,-31 142,-62 222,-96zm3081 4916c-4,-3 -7,-7 -11,-10 -79,82 -158,164 -237,247 3,2 5,5 8,7 90,-71 160,-162 240,-244zm-301 379c-2,-3 -4,-5 -7,-8 -91,70 -182,141 -273,211 109,-47 195,-124 280,-203zm-2499 -5349c90,-3 168,-49 259,-63 -28,-28 -230,21 -259,63zm-1030 522c2,4 4,8 6,12 112,-52 225,-105 337,-157 -3,-6 -6,-12 -8,-17 -116,46 -230,96 -335,162zm2174 5361c34,16 260,-59 297,-102 -113,13 -202,67 -297,102zm-1616 -5690c2,5 4,10 6,15 104,-34 199,-86 299,-132 -18,-7 -35,-8 -49,-3 -77,33 -153,68 -229,102 -10,5 -18,12 -27,18zm2886 5060c50,-1 347,-296 342,-341 -114,114 -226,226 -342,341zm-1979 -5276c-36,-32 -290,24 -331,69 11,4 21,12 28,10 100,-25 199,-52 303,-79zm1904 5428c-147,86 -291,170 -434,254 45,16 413,-194 434,-254zm-2396 -5296c-25,2 -44,0 -59,7 -106,42 -212,86 -318,131 -10,4 -18,14 -31,25 41,11 383,-124 408,-163zm2237 5321c-172,84 -345,169 -526,257 89,2 496,-192 526,-257zm-4479 -2014c-3,0 -6,0 -9,0 -1,9 -4,19 -2,28 31,152 73,302 130,446 84,214 188,417 305,615 107,182 222,358 363,516 62,69 128,135 199,195 79,65 163,124 250,178 85,53 177,95 267,141 23,12 50,19 75,28 1,-4 2,-8 4,-11 -31,-18 -63,-36 -94,-55 -79,-48 -161,-92 -238,-145 -70,-49 -137,-102 -199,-161 -95,-91 -191,-183 -274,-285 -152,-186 -280,-390 -399,-600 -138,-243 -260,-494 -341,-763 -13,-42 -25,-85 -37,-127zm41 -872c-3,0 -5,-1 -7,-2 -4,12 -11,23 -12,35 -8,68 -18,137 -21,206 -4,78 -5,157 -2,235 3,79 8,158 20,236 15,88 40,174 61,261 51,211 139,409 239,601 94,180 203,353 310,526 93,148 201,287 325,411 96,96 195,190 312,262 90,55 181,111 272,166 34,20 70,38 105,56 56,30 111,59 167,87 65,32 130,64 196,94 28,13 57,21 86,31 1,-3 2,-6 3,-9 -43,-22 -85,-45 -128,-67 -76,-39 -153,-74 -226,-117 -105,-61 -206,-128 -310,-191 -103,-62 -192,-140 -282,-219 -140,-123 -259,-263 -366,-414 -159,-225 -299,-462 -416,-712 -79,-171 -148,-345 -205,-524 -87,-271 -128,-547 -123,-831 1,-40 1,-81 2,-121zm5956 -526c2,0 4,0 6,0 1,-7 3,-14 1,-20 -38,-121 -71,-244 -116,-362 -138,-358 -377,-638 -688,-860 -43,-31 -84,-66 -123,-102 -68,-63 -133,-130 -200,-194 -48,-46 -95,-94 -147,-136 -80,-63 -159,-128 -246,-180 -80,-48 -170,-82 -257,-119 -33,-14 -71,-19 -106,-29 -2,3 -4,6 -5,9 8,9 15,20 26,27 84,50 160,110 224,185 40,48 81,96 116,148 36,56 65,116 98,174 18,31 140,218 196,267 64,56 139,100 213,141 110,63 226,114 335,178 82,49 161,104 232,167 154,137 263,307 349,493 32,70 61,142 92,213zm-5677 -279c-3,-1 -6,-3 -10,-4 -5,6 -13,12 -16,20 -31,74 -68,147 -88,225 -61,232 -97,467 -99,708 -1,191 11,380 52,566 46,216 112,427 201,629 66,152 138,302 219,446 130,232 274,456 458,650 54,58 110,115 171,166 72,62 149,118 225,175 45,33 91,63 138,92 36,23 76,41 113,62 74,40 148,83 222,123 33,19 68,37 103,54 62,28 124,55 187,83 101,45 202,92 304,134 42,18 87,27 130,38 11,3 23,-1 34,-1 -4,-15 -10,-22 -18,-25 -108,-46 -216,-91 -324,-138 -52,-23 -102,-48 -153,-74 -79,-40 -157,-80 -234,-122 -70,-37 -140,-72 -206,-114 -88,-57 -175,-116 -257,-180 -82,-62 -161,-128 -236,-197 -153,-143 -273,-313 -388,-487 -217,-329 -370,-687 -477,-1065 -57,-199 -104,-401 -117,-608 -11,-169 -20,-340 -16,-509 5,-209 33,-416 80,-621 2,-8 2,-17 2,-26zm5720 1094c4,0 9,0 13,0 2,-18 7,-38 5,-56 -13,-114 -26,-229 -44,-343 -24,-156 -67,-307 -123,-455 -70,-184 -161,-356 -294,-503 -103,-111 -222,-202 -360,-266 -139,-64 -278,-128 -416,-195 -83,-41 -156,-97 -207,-174 -51,-79 -99,-162 -134,-249 -49,-118 -119,-221 -198,-319 -110,-135 -254,-221 -413,-286 -10,-4 -22,-3 -34,-5 4,12 9,18 16,22 99,61 185,137 254,233 68,93 100,197 108,307 10,147 11,296 6,443 -5,163 97,277 238,319 91,27 186,26 280,31 159,9 311,50 455,118 162,76 296,187 397,333 72,104 136,214 193,328 94,186 171,379 226,580 13,45 21,91 32,137zm-5174 -1913c-3,-2 -6,-3 -9,-5 -12,11 -25,21 -35,33 -46,54 -91,108 -135,162 -81,100 -149,206 -188,331 -66,211 -122,425 -146,645 -19,175 -26,353 -29,530 -2,119 10,239 20,358 17,198 63,391 115,582 56,199 121,395 214,578 79,156 165,308 257,456 92,149 197,291 327,410 93,85 188,167 288,243 88,68 180,130 276,186 106,63 217,117 328,172 99,50 200,97 302,142 80,35 163,64 246,96 20,8 42,13 62,23 79,42 162,67 253,53 25,-4 51,-8 76,-12 0,-5 0,-10 1,-14 -11,-6 -20,-14 -31,-18 -122,-51 -244,-100 -366,-152 -120,-52 -239,-107 -358,-162 -88,-40 -176,-79 -260,-127 -142,-80 -281,-167 -411,-268 -134,-105 -257,-220 -362,-353 -197,-249 -358,-518 -476,-813 -99,-248 -169,-504 -215,-766 -44,-248 -65,-498 -60,-749 3,-173 17,-347 35,-519 22,-199 62,-396 118,-589 42,-144 90,-286 155,-422 4,-9 6,-20 8,-31zm5047 2563c3,1 5,1 8,2 5,-10 11,-19 14,-28 18,-52 57,-176 57,-187 7,-214 -32,-422 -99,-625 -66,-203 -147,-400 -246,-589 -72,-138 -157,-266 -274,-370 -167,-149 -367,-223 -585,-250 -82,-11 -166,-5 -249,-3 -81,3 -161,4 -240,-21 -102,-31 -160,-105 -187,-200 -15,-53 -10,-112 -9,-169 1,-70 10,-140 13,-210 3,-52 0,-105 5,-156 9,-85 0,-168 -20,-249 -22,-92 -69,-174 -134,-245 -89,-96 -195,-168 -314,-221 -15,-6 -35,-3 -52,-4 -1,4 -1,8 -2,12 5,5 9,11 14,15 88,63 169,132 232,223 76,112 103,235 88,364 -15,122 -50,242 -74,363 -21,107 -43,213 -57,321 -20,140 -3,278 46,411 22,60 58,114 111,151 91,64 196,73 301,44 93,-25 183,-61 275,-88 77,-23 154,-47 232,-55 197,-23 360,51 499,187 107,105 188,230 250,365 99,212 191,427 281,643 67,163 103,333 109,509 1,20 5,40 7,60zm-410 696c3,0 6,1 10,2 4,-5 8,-8 11,-13 39,-60 75,-122 116,-181 58,-83 107,-168 128,-270 51,-239 31,-473 -44,-702 -62,-186 -135,-369 -209,-550 -65,-157 -145,-306 -258,-435 -82,-95 -179,-163 -302,-195 -127,-33 -247,-10 -367,33 -124,46 -248,92 -375,130 -100,30 -202,23 -298,-22 -59,-28 -94,-79 -132,-130 -53,-75 -89,-157 -97,-246 -15,-152 -10,-304 22,-454 27,-124 56,-246 85,-369 10,-45 26,-89 31,-134 10,-83 23,-165 4,-250 -19,-83 -51,-161 -107,-223 -55,-60 -118,-113 -182,-163 -48,-39 -105,-62 -170,-49 -10,2 -19,7 -35,13 13,10 19,15 26,19 119,83 213,183 252,329 26,99 18,195 -9,291 -27,98 -65,194 -97,292 -19,56 -38,111 -53,168 -22,81 -42,163 -58,245 -34,171 -59,342 -27,517 21,110 51,213 115,307 73,110 161,198 291,237 78,23 158,46 239,25 95,-24 189,-55 280,-93 119,-50 233,-115 352,-166 92,-40 190,-48 287,-18 104,33 182,103 247,188 89,114 147,245 199,378 65,167 114,339 141,515 19,119 26,240 33,360 3,64 -2,128 -8,192 -9,105 -22,210 -33,316 -3,35 -6,70 -8,106zm-1921 1579c-9,-9 -10,-12 -13,-14 -82,-47 -165,-94 -249,-140 -165,-91 -331,-181 -498,-271 -102,-56 -208,-106 -308,-165 -137,-81 -255,-186 -384,-281 -108,-104 -219,-206 -317,-319 -150,-172 -284,-357 -400,-554 -103,-175 -188,-359 -245,-554 -50,-171 -89,-344 -104,-522 -16,-175 -34,-351 -37,-527 -4,-290 33,-576 98,-859 52,-229 129,-449 232,-658 65,-132 142,-258 212,-387 9,-14 12,-32 18,-48 -3,-3 -6,-5 -9,-8 -15,6 -31,10 -46,17 -95,49 -192,95 -285,148 -37,21 -72,51 -97,85 -108,149 -190,313 -250,486 -53,151 -96,306 -132,463 -33,144 -58,290 -74,437 -25,237 -31,476 -14,714 18,256 50,510 118,758 38,138 82,274 134,407 90,228 208,442 350,643 133,190 283,365 471,501 130,95 269,178 405,265 35,23 74,40 112,58 50,24 101,46 152,68 105,45 211,89 317,133 78,33 157,65 236,96 93,38 186,77 280,111 26,9 58,5 85,-1 45,-9 89,-25 133,-40 36,-12 70,-27 109,-42zm1574 -1051c16,-14 27,-21 34,-30 40,-55 83,-109 117,-168 22,-35 55,-66 54,-114 -1,-54 3,-107 7,-160 13,-173 26,-345 39,-518 19,-248 10,-495 -47,-739 -45,-193 -108,-380 -225,-544 -51,-70 -114,-129 -196,-163 -102,-42 -205,-33 -301,11 -123,56 -241,124 -362,184 -202,100 -410,128 -625,45 -146,-56 -253,-161 -335,-291 -48,-77 -77,-164 -97,-254 -24,-112 -33,-225 -21,-337 11,-103 31,-206 53,-307 20,-90 45,-179 72,-267 54,-173 132,-338 172,-516 18,-80 19,-160 -4,-239 -26,-90 -84,-160 -148,-229 -89,-94 -190,-113 -309,-84 -7,2 -12,8 -23,15 14,11 24,18 33,26 156,121 210,280 158,457 -38,134 -95,263 -150,390 -113,259 -229,517 -268,801 -19,137 -23,273 -2,410 29,182 94,348 212,492 108,130 243,222 393,295 145,70 297,110 457,122 206,15 395,-45 577,-133 89,-42 178,-82 279,-95 104,-13 176,32 234,108 57,76 94,165 105,260 15,132 26,265 32,398 10,223 12,447 23,670 6,131 22,262 36,392 3,35 15,69 26,112zm-2664 -4601c3,12 3,16 4,18 72,88 69,187 41,290 -31,114 -88,216 -145,317 -99,174 -200,346 -272,533 -145,377 -185,764 -119,1162 37,229 110,446 243,640 149,215 357,357 589,466 231,109 475,183 719,255 131,38 261,76 389,121 109,38 208,96 283,188 103,126 138,279 162,435 21,140 35,281 56,422 11,78 26,159 75,225 69,90 110,93 181,23 105,-103 211,-206 315,-311 11,-11 16,-35 13,-51 -13,-96 -36,-190 -44,-286 -25,-271 -45,-542 -66,-813 -13,-167 -27,-334 -82,-493 -44,-125 -121,-177 -244,-162 -83,11 -166,28 -248,47 -159,37 -319,59 -482,46 -289,-23 -557,-115 -801,-273 -264,-171 -410,-418 -462,-724 -23,-139 -31,-279 -9,-417 20,-127 41,-254 77,-376 64,-215 167,-415 266,-616 50,-103 99,-208 122,-323 32,-160 -8,-295 -142,-396 -31,-24 -65,-40 -105,-30 -61,15 -123,29 -184,45 -43,11 -86,25 -130,38zm1880 5317c-33,-27 -61,-46 -84,-70 -65,-67 -89,-154 -107,-242 -32,-156 -56,-314 -91,-470 -38,-175 -123,-325 -285,-416 -102,-57 -208,-106 -316,-149 -270,-107 -544,-203 -804,-335 -146,-74 -286,-159 -410,-269 -204,-180 -331,-407 -410,-665 -69,-227 -99,-459 -99,-696 0,-240 34,-475 102,-706 67,-226 175,-434 288,-639 58,-105 109,-213 157,-323 28,-62 33,-129 20,-198 -12,-59 -34,-73 -90,-51 -124,47 -247,94 -372,139 -38,14 -62,37 -72,76 -3,10 -7,20 -12,29 -56,98 -111,198 -171,294 -91,147 -166,302 -227,463 -146,387 -200,791 -199,1203 1,244 31,486 80,725 69,336 207,640 425,904 131,158 270,311 415,457 128,127 262,250 406,358 161,122 335,225 504,336 114,75 229,147 342,224 88,61 171,130 259,190 90,61 183,105 298,46 125,-64 256,-115 385,-172 23,-11 43,-27 68,-43zm1674 -1886c-153,411 -325,635 -365,713 -60,114 -117,231 -174,347 -17,37 -35,72 -52,109 -22,50 -42,100 -60,152 -4,13 0,34 8,45 16,21 16,36 -2,52 -10,10 -21,21 -32,30 -117,92 -234,185 -350,277 -130,104 -258,211 -392,310 -117,86 -248,149 -383,202 -100,39 -202,72 -303,107 -122,43 -244,88 -368,127 -76,23 -155,39 -233,53 -76,14 -388,0 -510,-28 -121,-28 -330,-66 -447,-106 -156,-55 -311,-111 -466,-168 -64,-24 -127,-51 -190,-78 -110,-47 -221,-91 -328,-144 -92,-46 -183,-98 -267,-158 -87,-60 -172,-127 -247,-201 -129,-127 -242,-267 -339,-419 -94,-146 -186,-293 -270,-444 -139,-250 -255,-510 -316,-790 -28,-127 -39,-258 -48,-388 -7,-90 -4,-183 5,-273 21,-206 55,-410 111,-610 41,-147 90,-292 138,-438 25,-73 57,-144 87,-216 32,-79 63,-160 102,-237 46,-90 97,-178 151,-264 45,-72 95,-141 147,-207 44,-56 95,-107 141,-161 88,-102 189,-190 300,-266 58,-39 119,-76 175,-117 76,-55 149,-113 222,-171 9,-7 16,-24 14,-34 -6,-47 1,-66 44,-90 120,-65 248,-108 381,-136 74,-15 150,-27 225,-42 76,-15 152,-36 230,-45 112,-15 226,-23 340,-30 92,-5 185,-4 278,-5 40,0 251,6 317,14 119,14 240,28 360,45 62,9 124,19 186,28 67,10 133,27 199,41 163,33 425,155 567,244 91,58 397,320 429,349 54,49 111,95 166,143 76,66 153,129 225,198 264,253 440,560 559,903 50,143 89,289 102,440 13,147 17,295 24,442 2,38 8,248 4,314 -9,120 -47,435 -95,581z"/>
   <path class="fil0" d="M20843 3507l-1303 0c-16,0 -29,-4 -41,-13 -11,-9 -17,-23 -17,-42l0 -1835c0,-42 20,-63 58,-63l1269 0c22,0 39,6 48,19 10,12 15,28 15,48l0 231c0,16 -6,30 -17,42 -11,13 -27,19 -49,19l-936 0 0 400 721 0c18,-2 32,2 43,11 10,9 15,25 15,46l0 239c0,16 -4,29 -13,42 -9,12 -23,18 -42,18l-724 0 0 479 970 0c25,0 41,5 49,16 8,10 12,27 12,49l0 239c0,37 -20,55 -58,55zm-3083 -1416c-13,-33 -32,-63 -56,-89 -24,-26 -53,-48 -87,-64 -33,-17 -71,-25 -112,-25l-450 0 0 555 459 0c42,0 80,-7 113,-22 34,-15 61,-36 84,-62 22,-25 39,-55 51,-88 12,-34 18,-69 18,-106 0,-33 -7,-66 -20,-99zm402 1404c-8,8 -23,12 -45,12l-315 0c-23,0 -40,-13 -50,-40l-292 -642 -405 0 0 627c0,37 -19,55 -58,55l-272 0c-16,0 -30,-4 -41,-13 -12,-9 -17,-23 -17,-42l0 -1835c0,-42 19,-63 58,-63l793 0c90,0 174,16 252,50 78,34 145,80 202,138 57,58 102,125 134,203 33,78 49,160 49,248 0,60 -8,117 -23,171 -15,54 -37,105 -65,152 -27,47 -61,90 -100,128 -40,39 -83,72 -131,99l336 704c0,2 1,4 1,6 1,2 2,4 2,6 0,16 -4,28 -13,36zm-3004 -448c-42,97 -100,183 -173,256 -73,73 -159,131 -256,173 -97,42 -202,63 -312,63 -74,0 -145,-10 -213,-29 -69,-19 -133,-46 -192,-82 -60,-35 -114,-76 -163,-125 -50,-49 -92,-103 -127,-163 -35,-59 -62,-123 -81,-192 -20,-68 -29,-139 -29,-213l0 -1124c0,-13 5,-26 15,-38 11,-13 24,-19 40,-19l272 0c13,0 26,5 40,17 14,11 21,25 21,40l0 1124c0,61 10,119 30,174 20,54 49,102 86,143 37,40 81,73 132,96 51,24 108,36 169,36 61,0 118,-12 168,-36 51,-23 95,-56 132,-96 37,-41 65,-89 86,-143 20,-55 30,-113 30,-174l0 -1124c0,-15 6,-29 18,-40 11,-12 26,-17 44,-17l260 0c16,0 31,5 45,15 14,11 21,25 21,42l0 1124c0,111 -21,214 -63,312zm-3054 -1050c-13,17 -26,28 -39,30 -13,3 -29,-2 -48,-13 -54,-40 -113,-70 -177,-92 -63,-22 -131,-33 -202,-33 -89,0 -171,17 -246,51 -74,33 -139,79 -193,137 -55,58 -97,126 -127,204 -30,78 -46,162 -46,251 0,89 16,172 46,250 30,77 72,145 127,203 54,58 119,103 193,137 75,33 157,50 246,50 71,0 139,-11 204,-33 65,-22 124,-53 178,-92 19,-12 35,-16 48,-14 13,1 26,11 39,28l130 220c10,20 11,36 4,49 -7,13 -18,24 -33,33 -81,55 -170,98 -266,128 -96,30 -197,45 -301,45 -93,0 -182,-11 -268,-35 -85,-24 -165,-58 -240,-102 -74,-43 -142,-96 -203,-157 -61,-61 -114,-128 -158,-202 -43,-74 -77,-154 -101,-240 -23,-85 -35,-175 -35,-268 0,-93 12,-182 35,-267 24,-86 58,-166 101,-241 44,-75 97,-143 158,-205 61,-61 129,-114 203,-157 75,-43 155,-77 240,-101 86,-24 175,-37 268,-37 104,0 203,15 297,45 94,29 182,71 265,126 15,9 26,21 33,35 7,14 5,30 -4,50l-128 217zm-2916 1510l-265 0c-39,0 -58,-19 -58,-57l0 -1839c0,-15 5,-29 14,-40 10,-12 24,-17 44,-17l265 0c14,0 28,5 43,15 14,11 22,25 22,42l0 1839c0,38 -22,57 -65,57z"/>
   <path class="fil0" d="M9226 4911c-9,0 -16,-6 -21,-19l-247 -540 -45 567c0,15 -8,22 -22,22l-11 0c-14,0 -21,-7 -21,-22l50 -663c0,-6 2,-11 5,-15 4,-4 9,-6 16,-6l18 0c7,0 12,2 15,6 3,3 5,9 7,15l262 565 258 -565c2,-6 4,-12 7,-15 3,-4 8,-6 15,-6l18 0c6,0 11,2 16,6 4,3 7,9 7,15l50 663c0,15 -7,22 -22,22l-11 0c-14,0 -21,-7 -21,-22l-46 -567 -244 540c-5,13 -12,19 -22,19l-11 0z"/>
   <path class="fil0" d="M10311 4235c6,0 11,2 15,5 4,4 6,9 6,16l0 11c0,6 -1,11 -5,15 -4,5 -9,7 -16,7l-428 0 0 267 348 0c5,0 10,2 14,5 4,4 7,9 7,16l0 12c0,6 -2,11 -6,15 -4,4 -9,7 -15,7l-348 0 0 276 439 0c6,0 11,2 15,5 4,4 6,9 6,16l0 11c0,6 -2,11 -6,16 -4,4 -9,6 -15,6l-472 0c-14,0 -21,-7 -21,-21l0 -664c0,-6 2,-11 5,-15 4,-4 9,-6 16,-6l461 0z"/>
   <path class="fil0" d="M10710 4417c0,58 -4,110 -10,157 -6,46 -14,88 -25,126 -10,37 -22,71 -36,102 -14,30 -29,58 -44,85l407 0 0 -599 -292 0 0 129zm-178 524l0 171c0,10 -5,14 -16,14l-24 0c-10,0 -15,-4 -15,-14l0 -210c0,-10 5,-15 15,-15l40 0c15,-24 30,-51 45,-81 15,-29 28,-63 40,-101 11,-37 20,-80 27,-128 7,-47 11,-101 11,-160l0 -168c0,-10 5,-15 15,-15l371 0c4,0 7,1 10,4 4,2 5,6 5,10l0 639 65 0c4,0 7,1 10,4 3,2 5,6 5,10l0 208c0,5 -2,9 -6,12 -3,2 -7,3 -11,3l-20 0c-6,0 -10,-1 -13,-5 -3,-3 -5,-7 -5,-13l0 -165 -549 0z"/>
   <path class="fil0" d="M11384 4941c-6,0 -12,-2 -16,-6 -4,-4 -6,-9 -6,-16l0 -663c0,-6 2,-12 7,-15 4,-4 9,-6 15,-6l11 0c7,0 13,2 16,6 4,4 5,9 5,15l0 595 483 -610c3,-4 7,-6 13,-6l19 0c6,0 11,2 16,6 4,4 6,9 6,16l0 662c0,15 -7,22 -21,22l-11 0c-15,0 -22,-7 -22,-22l0 -592 -481 608c-3,4 -8,6 -15,6l-19 0z"/>
   <path class="fil0" d="M12633 4887l0 -635c0,-6 2,-10 5,-13 3,-3 7,-4 12,-4l21 0c5,0 9,1 12,4 3,3 5,7 5,12l0 636 51 0c1,0 1,0 2,0 0,0 1,0 1,0 12,0 18,6 18,18l0 205c0,11 -6,17 -18,17l-20 0c-11,0 -17,-6 -17,-17l0 -169 -500 0c-5,0 -9,-1 -12,-4 -3,-3 -5,-8 -5,-13l0 -673c0,-5 2,-9 5,-12 3,-3 7,-4 12,-4l21 0c5,0 9,1 12,4 3,3 5,7 5,13l0 635 390 0z"/>
   <path class="fil0" d="M13004 4941c-6,0 -11,-2 -16,-6 -4,-4 -6,-9 -6,-16l0 -663c0,-6 2,-12 7,-15 4,-4 10,-6 15,-6l12 0c7,0 12,2 15,6 4,4 6,9 6,15l0 595 482 -610c3,-4 7,-6 14,-6l19 0c5,0 10,2 15,6 4,4 6,9 6,16l0 662c0,15 -6,22 -21,22l-11 0c-15,0 -22,-7 -22,-22l0 -592 -481 608c-3,4 -8,6 -15,6l-19 0z"/>
   <path class="fil0" d="M14328 4252c0,-5 2,-10 5,-13 3,-3 7,-4 12,-4l20 0c5,0 10,1 13,4 3,3 5,7 5,13l0 672c0,12 -6,17 -18,17l-20 0c-11,0 -17,-5 -17,-17l0 -317 -464 0 0 317c0,12 -6,17 -18,17l-20 0c-11,0 -17,-5 -17,-17l0 -672c0,-5 1,-10 4,-13 3,-3 7,-4 13,-4l20 0c5,0 10,1 13,4 3,3 5,8 5,13l0 301 464 0 0 -301z"/>
   <path class="fil0" d="M14733 4713l335 0 -167 -401 -168 401zm138 -457c1,-5 4,-10 8,-14 3,-5 8,-7 14,-7l17 0c4,0 7,1 9,3 3,2 5,4 7,7 2,2 3,5 5,8 1,3 2,5 3,6l275 661c1,3 2,5 2,7 0,5 -2,8 -5,11 -3,2 -6,3 -11,3l-12 0c-7,0 -13,-2 -17,-6 -5,-4 -8,-9 -11,-15l-64 -152 -380 0 -62 149c-6,16 -15,24 -29,24l-12 0c-10,0 -15,-4 -15,-12 0,-3 0,-6 1,-10l277 -663z"/>
   <path class="fil0" d="M16731 4614l0 275 280 0c18,0 35,-4 52,-11 16,-8 30,-18 43,-31 12,-13 22,-28 29,-45 7,-18 11,-36 11,-55 0,-20 -3,-37 -10,-54 -7,-16 -17,-30 -29,-42 -12,-12 -27,-21 -43,-27 -17,-7 -35,-10 -54,-10l-279 0zm373 -196c0,-19 -3,-36 -9,-52 -6,-16 -15,-30 -26,-41 -11,-12 -25,-21 -41,-28 -15,-6 -32,-10 -51,-10l-246 0 0 274 246 0c19,0 36,-4 51,-12 16,-8 30,-18 41,-31 11,-13 20,-29 26,-46 6,-17 9,-35 9,-54zm55 -1c0,32 -7,61 -21,89 -14,27 -33,50 -57,69 18,7 34,16 49,27 14,11 27,24 38,38 10,15 18,31 24,49 6,18 9,37 9,57 0,26 -5,51 -14,75 -10,23 -23,44 -40,62 -17,17 -37,32 -61,42 -23,11 -48,16 -76,16l-310 0c-6,0 -12,-2 -16,-6 -4,-4 -6,-9 -6,-16l0 -662c0,-7 2,-12 6,-16 4,-4 10,-6 16,-6l277 0c25,0 48,5 71,14 22,10 41,23 58,39 16,17 29,36 39,58 9,22 14,46 14,71z"/>
   <path class="fil0" d="M17900 4235c6,0 11,2 15,5 4,4 6,9 6,16l0 11c0,6 -2,11 -6,15 -4,5 -9,7 -15,7l-428 0 0 267 347 0c6,0 11,2 15,5 4,4 6,9 6,16l0 12c0,6 -2,11 -6,15 -4,4 -9,7 -15,7l-347 0 0 276 438 0c6,0 11,2 15,5 4,4 6,9 6,16l0 11c0,6 -2,11 -5,16 -4,4 -9,6 -16,6l-472 0c-14,0 -21,-7 -21,-21l0 -664c0,-6 2,-11 6,-15 3,-4 8,-6 15,-6l462 0z"/>
   <path class="fil0" d="M18089 4943c-6,0 -11,-2 -15,-5 -4,-4 -6,-9 -6,-17l0 -10c0,-7 2,-12 5,-16 4,-3 9,-5 16,-6 11,-1 22,-4 33,-10 10,-5 19,-13 26,-22 8,-8 14,-18 18,-29 4,-12 6,-23 6,-34l0 -538c0,-6 2,-11 6,-15 3,-4 8,-6 15,-6l457 0c6,0 12,2 16,6 4,3 7,9 7,15l0 664c0,14 -8,21 -23,21l-11 0c-14,0 -21,-7 -21,-21l0 -629 -391 0 0 503c0,20 -4,39 -11,56 -7,17 -17,33 -29,46 -13,13 -27,24 -44,32 -17,8 -35,13 -54,15z"/>
   <path class="fil0" d="M19426 4252c0,-5 1,-10 4,-13 3,-3 7,-4 13,-4l19 0c6,0 10,1 13,4 4,3 5,7 5,13l0 672c0,12 -6,17 -18,17l-19 0c-12,0 -17,-5 -17,-17l0 -317 -465 0 0 317c0,12 -6,17 -18,17l-20 0c-11,0 -17,-5 -17,-17l0 -672c0,-5 2,-10 4,-13 3,-3 8,-4 13,-4l20 0c6,0 10,1 13,4 3,3 5,8 5,13l0 301 465 0 0 -301z"/>
   <path class="fil0" d="M20211 4235c6,0 11,2 15,5 4,4 6,9 6,16l0 11c0,6 -2,11 -6,15 -3,5 -8,7 -15,7l-428 0 0 267 347 0c6,0 11,2 15,5 4,4 6,9 6,16l0 12c0,6 -2,11 -5,15 -4,4 -9,7 -16,7l-347 0 0 276 439 0c5,0 10,2 14,5 5,4 7,9 7,16l0 11c0,6 -2,11 -6,16 -4,4 -9,6 -15,6l-473 0c-14,0 -20,-7 -20,-21l0 -664c0,-6 1,-11 5,-15 4,-4 9,-6 15,-6l462 0z"/>
   <path class="fil0" d="M20990 4303c6,3 9,7 10,12 1,5 0,9 -4,13l-12 16c-5,5 -9,8 -13,9 -4,0 -11,-3 -20,-9 -27,-20 -56,-36 -87,-47 -31,-11 -63,-17 -96,-17 -29,0 -57,4 -84,12 -26,7 -51,18 -74,32 -23,14 -44,30 -63,49 -18,19 -34,40 -48,63 -13,22 -23,47 -31,72 -7,26 -10,52 -10,79 0,28 3,54 11,81 8,26 19,50 33,73 13,23 30,44 49,64 19,19 40,35 62,49 23,14 46,25 72,33 25,8 51,11 78,11 16,0 33,-1 50,-4 17,-3 34,-8 51,-14 17,-6 33,-14 49,-22 16,-9 31,-19 44,-30 5,-3 10,-5 15,-4 6,1 10,5 15,12l7 11c3,5 4,10 3,15 0,6 -3,11 -9,15 -12,9 -25,17 -38,25 -14,8 -28,15 -43,22 -44,18 -92,28 -142,28 -33,0 -65,-5 -96,-13 -31,-9 -59,-21 -86,-37 -27,-16 -51,-35 -74,-57 -22,-22 -41,-46 -56,-73 -16,-27 -28,-57 -37,-88 -9,-31 -13,-63 -13,-97 0,-33 4,-65 13,-95 8,-31 20,-60 36,-87 16,-27 35,-51 57,-73 22,-22 47,-41 74,-57 27,-16 56,-28 87,-36 31,-9 64,-14 97,-14 49,0 96,10 140,29 16,7 30,14 44,22 13,8 27,17 39,27z"/>
   <path class="fil0" d="M15963 4585c0,44 -35,78 -79,78 -43,0 -77,-34 -77,-78 0,-43 34,-78 77,-78 44,0 79,35 79,78z"/>
  </g>
 </g>
</svg>
