<?xml version="1.0" encoding="UTF-8"?>
<!DOCTYPE svg PUBLIC "-//W3C//DTD SVG 1.0//EN" "http://www.w3.org/TR/2001/REC-SVG-20010904/DTD/svg10.dtd">
<!-- Creator: CorelDRAW X8 -->
<svg xmlns="http://www.w3.org/2000/svg" xml:space="preserve" width="130px" height="58px" version="1.0" style="shape-rendering:geometricPrecision; text-rendering:geometricPrecision; image-rendering:optimizeQuality; fill-rule:evenodd; clip-rule:evenodd"
viewBox="0 0 13000 5800"
 xmlns:xlink="http://www.w3.org/1999/xlink">
 <defs>
  <style type="text/css">
   <![CDATA[
    .fil0 {fill:white;fill-rule:nonzero}
   ]]>
  </style>
 </defs>
 <g id="Layer_x0020_1">
  <metadata id="CorelCorpID_0Corel-Layer"/>
  <g id="_2603784061952">
   <path class="fil0" d="M2810 5647l62 -74c93,84 181,126 304,126 119,0 197,-64 197,-153 0,-82 -44,-129 -230,-169 -204,-44 -297,-110 -297,-257 0,-139 122,-242 291,-242 129,0 221,37 311,108l-58 78c-83,-67 -165,-96 -256,-96 -115,0 -188,63 -188,145 0,84 45,131 240,172 197,43 288,115 288,253 0,152 -126,250 -302,250 -140,0 -255,-46 -362,-141z"/>
   <path class="fil0" d="M4468 4983l-298 0 0 -92 696 0 0 92 -298 0 0 793 -100 0 0 -793z"/>
   <path class="fil0" d="M5524 5405l0 -514 100 0 0 508c0,191 101,298 270,298 163,0 267,-98 267,-292l0 -514 100 0 0 507c0,258 -148,392 -369,392 -219,0 -368,-134 -368,-385z"/>
   <path class="fil0" d="M7368 5683c224,0 367,-152 367,-350 0,-196 -143,-350 -367,-350l-207 0 0 700 207 0zm-307 -792l307 0c278,0 470,191 470,442 0,249 -192,443 -470,443l-307 0 0 -885z"/>
   <path class="fil0" d="M8538 4891l100 0 0 885 -100 0 0 -885z"/>
   <path class="fil0" d="M10086 5333c0,-201 -146,-365 -349,-365 -202,0 -347,162 -347,365 0,201 147,366 350,366 202,0 346,-162 346,-366zm-800 0c0,-244 184,-457 454,-457 269,0 449,211 449,457 0,244 -183,458 -452,458 -269,0 -451,-211 -451,-458z"/>
   <path class="fil0" d="M6966 1757c-140,210 -380,349 -651,349 -271,0 -510,-139 -650,-349l79 0c-72,-109 -114,-239 -114,-380 0,-379 307,-686 685,-686 379,0 686,307 686,686 0,141 -42,271 -115,380l80 0zm717 -380c0,-756 -612,-1368 -1368,-1368 -756,0 -1368,612 -1368,1368 0,132 19,260 54,380l-184 0c188,651 788,1126 1498,1126 711,0 1310,-475 1498,-1126l-183 0c35,-120 53,-248 53,-380zm5103 -666l223 -672 -2462 0 224 672 671 0 0 1046 336 0 0 1096 743 0 0 -1096 -406 0 0 -1046 671 0zm-3855 1046l348 -1046 350 1046 -698 0zm1366 0l-571 -1718 -895 0 -571 1718 190 0 -367 1096 743 0 163 -488 1078 0 162 488 743 0 -367 -1096 -308 0zm-9899 0l-407 0 0 1096 742 0 0 -1096 1018 0 192 -579 -874 0 0 -467 1028 0 224 -672 -1923 0 0 1718zm2819 0l336 0 0 -1718 -672 0 0 1718 -407 0 0 1096 1716 0 247 -743 -1220 0 0 -353z"/>
  </g>
 </g>
</svg>
