<?xml version="1.0" encoding="UTF-8"?>
<!DOCTYPE svg PUBLIC "-//W3C//DTD SVG 1.0//EN" "http://www.w3.org/TR/2001/REC-SVG-20010904/DTD/svg10.dtd">
<!-- Creator: CorelDRAW X8 -->
<svg xmlns="http://www.w3.org/2000/svg" xml:space="preserve" width="70px" height="55px" version="1.0" style="shape-rendering:geometricPrecision; text-rendering:geometricPrecision; image-rendering:optimizeQuality; fill-rule:evenodd; clip-rule:evenodd"
viewBox="0 0 7000 5500"
 xmlns:xlink="http://www.w3.org/1999/xlink">
 <defs>
  <style type="text/css">
   <![CDATA[
    .fil0 {fill:black}
    .fil2 {fill:#EB001B}
    .fil3 {fill:#F79E1B}
    .fil1 {fill:#FF5F00}
   ]]>
  </style>
 </defs>
 <g id="Layer_x0020_1">
  <metadata id="CorelCorpID_0Corel-Layer"/>
  <g id="_2364965279760">
   <g>
    <path id="XMLID_1775_" class="fil0" d="M1261 5469l0 -363c0,-138 -84,-229 -229,-229 -73,0 -151,24 -206,103 -42,-67 -102,-103 -193,-103 -61,0 -121,18 -169,84l0 -72 -127 0 0 580 127 0 0 -320c0,-103 54,-151 139,-151 84,0 127,54 127,151l0 320 127 0 0 -320c0,-103 60,-151 138,-151 85,0 127,54 127,151l0 320 139 0zm1879 -580l-205 0 0 -175 -127 0 0 175 -115 0 0 115 115 0 0 266c0,133 55,211 200,211 54,0 114,-18 157,-42l-37 -109c-36,24 -78,30 -108,30 -61,0 -85,-36 -85,-96l0 -260 205 0 0 -115zm1076 -12c-73,0 -121,36 -151,84l0 -72 -127 0 0 580 127 0 0 -326c0,-97 42,-151 121,-151 24,0 54,6 78,12l37 -121c-25,-6 -61,-6 -85,-6l0 0zm-1625 60c-61,-42 -145,-60 -236,-60 -145,0 -242,72 -242,187 0,97 73,151 200,169l60 6c67,12 103,31 103,61 0,42 -48,72 -133,72 -85,0 -151,-30 -193,-60l-61 97c67,48 157,72 248,72 169,0 266,-78 266,-187 0,-103 -79,-157 -200,-176l-60 -6c-54,-6 -97,-18 -97,-54 0,-42 43,-66 109,-66 73,0 145,30 181,48l55 -103zm3371 -60c-72,0 -121,36 -151,84l0 -72 -127 0 0 580 127 0 0 -326c0,-97 42,-151 121,-151 24,0 54,6 79,12l36 -121c-24,-6 -61,-6 -85,-6l0 0zm-1619 302c0,175 121,302 308,302 85,0 145,-18 206,-66l-61 -103c-48,36 -97,54 -151,54 -103,0 -175,-72 -175,-187 0,-109 72,-181 175,-187 54,0 103,18 151,54l61 -103c-61,-48 -121,-66 -206,-66 -187,0 -308,127 -308,302l0 0zm1172 0l0 -290 -127 0 0 72c-42,-54 -103,-84 -181,-84 -163,0 -290,127 -290,302 0,175 127,302 290,302 85,0 145,-30 181,-84l0 72 127 0 0 -290zm-465 0c0,-103 66,-187 175,-187 103,0 175,78 175,187 0,103 -72,187 -175,187 -109,-6 -175,-84 -175,-187l0 0zm-1517 -302c-169,0 -290,121 -290,302 0,181 121,302 296,302 85,0 169,-24 236,-78l-61 -91c-48,36 -108,60 -169,60 -78,0 -157,-36 -175,-139l429 0c0,-18 0,-30 0,-48 6,-187 -103,-308 -266,-308l0 0zm0 109c79,0 133,48 145,139l-302 0c12,-79 67,-139 157,-139l0 0zm3148 193l0 -520 -127 0 0 302c-42,-54 -102,-84 -181,-84 -163,0 -290,127 -290,302 0,175 127,302 290,302 85,0 145,-30 181,-84l0 72 127 0 0 -290zm-465 0c0,-103 66,-187 175,-187 103,0 175,78 175,187 0,103 -72,187 -175,187 -109,-6 -175,-84 -175,-187l0 0zm-4242 0l0 -290 -126 0 0 72c-43,-54 -103,-84 -182,-84 -163,0 -290,127 -290,302 0,175 127,302 290,302 85,0 145,-30 182,-84l0 72 126 0 0 -290zm-471 0c0,-103 67,-187 175,-187 103,0 176,78 176,187 0,103 -73,187 -176,187 -108,-6 -175,-84 -175,-187z"/>
   </g>
   <g id="XMLID_328_">
    <rect class="fil1" x="2548" y="484" width="1903" height="3420"/>
    <path id="XMLID_330_" class="fil2" d="M2669 2194c0,-695 326,-1311 828,-1710 -369,-290 -834,-465 -1341,-465 -1203,0 -2176,973 -2176,2175 0,1203 973,2175 2176,2175 507,0 972,-175 1341,-465 -502,-393 -828,-1015 -828,-1710z"/>
    <path class="fil3" d="M7020 2194c0,1203 -973,2175 -2176,2175 -507,0 -972,-175 -1341,-465 508,-399 828,-1015 828,-1710 0,-695 -326,-1311 -828,-1710 369,-290 834,-465 1341,-465 1203,0 2176,979 2176,2175z"/>
   </g>
  </g>
 </g>
</svg>
