<?xml version="1.0" encoding="UTF-8"?>
<!DOCTYPE svg PUBLIC "-//W3C//DTD SVG 1.1//EN" "http://www.w3.org/Graphics/SVG/1.1/DTD/svg11.dtd">
<!-- Creator: CorelDRAW X7 -->
<svg xmlns="http://www.w3.org/2000/svg" xml:space="preserve" width="1734px" height="118px" version="1.1" style="shape-rendering:geometricPrecision; text-rendering:geometricPrecision; image-rendering:optimizeQuality; fill-rule:evenodd; clip-rule:evenodd"
viewBox="0 0 1734 118"
 xmlns:xlink="http://www.w3.org/1999/xlink">
 <defs>
  <style type="text/css">
   <![CDATA[
    .fil1 {fill:#00C0F3}
    .fil0 {fill:#00C0F3;fill-opacity:0.341176}
   ]]>
  </style>
 </defs>
 <g id="Layer_x0020_1">
  <metadata id="CorelCorpID_0Corel-Layer"/>
  <g id="_2603868657056">
   <path class="fil0" d="M1534 18c-23,0 -45,-3 -67,-9 -22,-6 -44,-9 -66,-9 -23,0 -45,3 -67,9 -22,6 -44,9 -67,9 -22,0 -45,-3 -67,-9 -21,-6 -44,-9 -66,-9 -23,0 -45,3 -67,9 -22,6 -44,9 -67,9 -22,0 -45,-3 -66,-9 -22,-6 -44,-9 -67,-9 -23,0 -45,3 -67,9 -21,6 -44,9 -66,9 -23,0 -45,-3 -67,-9 -22,-6 -44,-9 -67,-9 -22,0 -45,3 -66,9 -22,6 -45,9 -67,9 -23,0 -45,-3 -67,-9 -22,-6 -44,-9 -67,-9 -22,0 -44,3 -66,9 -22,6 -44,9 -67,9 -22,0 -45,-3 -67,-9 -21,-6 -44,-9 -66,-9 -23,0 -45,3 -67,9l0 109 1734 0 0 -109c-22,-6 -44,-9 -67,-9 -22,0 -45,3 -66,9 -22,6 -45,9 -67,9l0 0z"/>
   <path class="fil0" d="M1734 118l0 -79c-31,-8 -64,-12 -96,-12 -33,0 -65,4 -97,12 -31,9 -63,13 -96,13 -33,0 -65,-4 -96,-13 -32,-8 -64,-12 -97,-12 -32,0 -65,4 -96,12 -31,9 -64,13 -96,13 -33,0 -65,-4 -97,-13 -31,-8 -63,-12 -96,-12 -33,0 -65,4 -96,12 -32,9 -64,13 -97,13 -32,0 -65,-4 -96,-13 -31,-8 -64,-12 -96,-12 -33,0 -65,4 -97,12 -31,9 -63,13 -96,13 -33,0 -65,-4 -96,-13 -32,-8 -64,-12 -97,-12 -32,0 -65,4 -96,12l0 79 1734 0z"/>
   <path class="fil1" d="M694 83c-57,16 -115,23 -174,23 -58,0 -117,-7 -173,-23 -57,-15 -115,-22 -174,-22 -58,0 -116,7 -173,22l0 35 1734 0 0 -35c-57,-15 -115,-22 -173,-22 -59,0 -117,7 -174,22 -56,16 -115,23 -173,23 -59,0 -117,-7 -174,-23 -56,-15 -114,-22 -173,-22 -59,0 -117,7 -173,22l0 0z"/>
  </g>
 </g>
</svg>
